<svg xmlns:xlink="http://www.w3.org/1999/xlink" width="68.5" xmlns="http://www.w3.org/2000/svg" height="68.5" id="screenshot-5fd6b4a1-1889-8004-8001-8136e1ed02ec" viewBox="-0 -0 68.5 68.5" style="-webkit-print-color-adjust: exact;" fill="none" version="1.1"><g id="shape-5fd6b4a1-1889-8004-8001-8136e1ed02ec" width="63" height="64" rx="0" ry="0" style="fill: rgb(0, 0, 0);"><g id="shape-5fd6b4a1-1889-8004-8001-8136e1eeec2b"><g class="fills" id="fills-5fd6b4a1-1889-8004-8001-8136e1eeec2b"><rect rx="21.5" ry="21.5" x="2.9999999979203835" y="2.999999997867917" transform="matrix(1.000000, 0.000000, -0.000000, 1.000000, 0.000000, -0.000000)" width="62.999999979446386" height="62.999999985334966" style="fill: rgb(96, 163, 217);"/></g><g id="strokes-5fd6b4a1-1889-8004-8001-8136e1eeec2b" class="strokes"><g class="stroke-shape"><rect rx="21.5" ry="21.5" x="2.9999999979203835" y="2.999999997867917" transform="matrix(1.000000, 0.000000, -0.000000, 1.000000, 0.000000, -0.000000)" width="62.999999979446386" height="62.999999985334966" style="fill: none; stroke-width: 5; stroke: rgb(0, 116, 183);"/></g></g></g><g id="shape-5fd6b4a1-1889-8004-8001-8136e1f1e649"><g class="fills" id="fills-5fd6b4a1-1889-8004-8001-8136e1f1e649"><path rx="0" ry="0" d="M26.605,27.488C25.898,27.682,25.252,28.041,24.721,28.533C24.190,29.026,23.791,29.637,23.559,30.314L17.000,49.445L18.033,50.450L28.587,40.188C28.377,39.760,28.250,39.287,28.250,38.781C28.250,36.969,29.761,35.500,31.625,35.500C33.489,35.500,35.000,36.969,35.000,38.781C35.000,40.594,33.489,42.063,31.625,42.063C31.105,42.063,30.618,41.939,30.178,41.734L19.623,51.996L20.656,53.000L40.334,46.623C41.030,46.397,41.659,46.009,42.166,45.493C42.672,44.977,43.042,44.349,43.241,43.662L46.250,33.313L37.250,24.563L26.605,27.488ZZM52.011,23.070L47.785,18.961C46.466,17.680,44.328,17.680,43.010,18.961L39.034,22.827L48.035,31.578L52.011,27.713C53.330,26.431,53.330,24.353,52.011,23.070ZZ" style="fill: rgb(255, 255, 255);"/></g></g></g></svg>